<?xml version="1.0" encoding="UTF-8" standalone="no"?>
<svg width="292px" height="260px" viewBox="0 0 292 260" version="1.1" xmlns="http://www.w3.org/2000/svg" xmlns:xlink="http://www.w3.org/1999/xlink" xmlns:sketch="http://www.bohemiancoding.com/sketch/ns">
    <!-- Generator: Sketch 3.3.2 (12043) - http://www.bohemiancoding.com/sketch -->
    <title>Burger Copy</title>
    <desc>Created with Sketch.</desc>
    <defs>
        <radialGradient cx="50%" cy="68.0889505%" fx="50%" fy="68.0889505%" r="61.6834038%" id="radialGradient-1">
            <stop stop-color="#BF7715" offset="0%"></stop>
            <stop stop-color="#DC9636" offset="100%"></stop>
        </radialGradient>
        <linearGradient x1="50%" y1="0%" x2="50%" y2="100%" id="linearGradient-2">
            <stop stop-color="#F2B968" offset="0%"></stop>
            <stop stop-color="#BF7A1D" offset="100%"></stop>
        </linearGradient>
        <radialGradient cx="50%" cy="11.9817919%" fx="50%" fy="11.9817919%" r="47.2093627%" id="radialGradient-3">
            <stop stop-color="#E85C66" offset="0%"></stop>
            <stop stop-color="#C92935" offset="100%"></stop>
        </radialGradient>
        <radialGradient cx="50%" cy="11.9817919%" fx="50%" fy="11.9817919%" r="47.2093627%" id="radialGradient-4">
            <stop stop-color="#75ED9F" offset="0%"></stop>
            <stop stop-color="#39BD67" offset="100%"></stop>
        </radialGradient>
        <radialGradient cx="50%" cy="11.9817919%" fx="50%" fy="11.9817919%" r="47.2093627%" id="radialGradient-5">
            <stop stop-color="#F7DE4A" offset="0%"></stop>
            <stop stop-color="#FACF40" offset="100%"></stop>
        </radialGradient>
        <linearGradient x1="74.8536378%" y1="100%" x2="63.5405402%" y2="39.4324544%" id="linearGradient-6">
            <stop stop-color="#F7DB48" offset="0%"></stop>
            <stop stop-color="#FACE40" offset="100%"></stop>
        </linearGradient>
        <linearGradient x1="32.661682%" y1="100%" x2="50%" y2="44.5060811%" id="linearGradient-7">
            <stop stop-color="#F7DB48" offset="0%"></stop>
            <stop stop-color="#FACE40" offset="100%"></stop>
        </linearGradient>
        <linearGradient x1="50%" y1="0%" x2="50%" y2="100%" id="linearGradient-8">
            <stop stop-color="#EDA23B" offset="0%"></stop>
            <stop stop-color="#D89334" offset="100%"></stop>
        </linearGradient>
        <linearGradient x1="50%" y1="0%" x2="50%" y2="100%" id="linearGradient-9">
            <stop stop-color="#F6CF9A" offset="0%"></stop>
            <stop stop-color="#E39B38" offset="100%"></stop>
        </linearGradient>
    </defs>
    <g id="App-Icons" stroke="none" stroke-width="1" fill="none" fill-rule="evenodd" sketch:type="MSPage">
        <g id="icon_256x256@2x" sketch:type="MSArtboardGroup" transform="translate(-110.000000, -126.000000)">
            <g id="Burger-Copy" sketch:type="MSLayerGroup" transform="translate(109.000000, 126.000000)">
                <g id="Bottom-Bun" transform="translate(1.673704, 143.700806)" sketch:type="MSShapeGroup">
                    <path d="M0.0526638514,33.0022718 L0.0526638514,82.6552282 C0.0526638514,82.6552282 -0.285774914,115.712868 145.157077,115.712874 C290.599928,115.712879 290.599928,82.6552282 290.599928,82.6552282 L290.599928,33.0022718 C290.599928,33.0022718 290.599932,74.3575728 145.157077,74.3575728 C-0.285778558,74.3575728 0.0526638514,33.0022718 0.0526638514,33.0022718 Z" id="Path-26-Copy-5" fill="url(#radialGradient-1)"></path>
                    <path d="M144.957282,75.0664904 C234.455357,75.0664904 290.599927,55.4772825 290.599927,35.8241506 C290.599927,16.1710188 224.2014,0.458898021 144.957282,0.458898021 C65.7131635,0.458898021 0.052663804,16.1710188 0.052663804,35.8241506 C0.052663804,55.4772825 55.4592059,75.0664904 144.957282,75.0664904 Z" id="Oval-1-Copy-4" fill="url(#linearGradient-2)"></path>
                    <path d="M144.957282,74.5664904 L144.957282,74.5664904 C187.477748,74.5664904 224.496692,70.1207701 251.200434,62.3352302 C276.075337,55.0828924 290.099927,45.3986474 290.099927,35.8241506 C290.099927,16.7740239 224.445458,0.958898021 144.957282,0.958898021 C65.6092224,0.958898021 0.552663804,16.7398506 0.552663804,35.8241506 C0.552663804,45.4138651 14.4240247,55.0928262 39.0840934,62.3355081 C65.6031775,70.1241843 102.450304,74.5664904 144.957282,74.5664904 L144.957282,74.5664904 Z M144.957282,75.0664904 L144.957282,75.0664904 C55.4592059,75.0664904 0.052663804,55.4772825 0.052663804,35.8241506 C0.052663804,16.1710188 65.7131635,0.458898021 144.957282,0.458898021 C224.2014,0.458898021 290.599927,16.1710188 290.599927,35.8241506 C290.599927,55.4772825 234.455357,75.0664904 144.957282,75.0664904 L144.957282,75.0664904 Z" id="Shape" fill="#BB791D"></path>
                </g>
                <g id="Ketchup" transform="translate(1.673704, 137.297787)" sketch:type="MSShapeGroup">
                    <path d="M0.0526637729,36.2354519 L0.0526637729,44.7158661 C0.0526637729,44.7158661 0.0526637729,80.837432 145.326296,80.837432 C290.599927,80.837432 290.599927,44.7158661 290.599927,44.7158661 L290.599927,36.2354519 C290.599927,36.2354519 290.599927,74.6105987 145.326296,74.6105987 C0.0526637729,74.6105987 0.0526637729,36.2354519 0.0526637729,36.2354519 Z" id="Path-26-Copy" fill="#C92935"></path>
                    <path d="M144.957274,75.0145623 C255.588124,75.0145678 290.59992,55.3859452 290.59992,35.7328134 C290.59992,16.0796816 224.201393,0.367560764 144.957274,0.367560764 C65.7131563,0.367560764 0.0526565889,16.0796816 0.0526565889,35.7328134 C0.0526565889,55.3859452 34.3264251,75.0145568 144.957274,75.0145623 Z" id="Oval-1-Copy-7" fill="url(#radialGradient-3)"></path>
                    <path d="M144.957274,74.5145623 L144.957274,74.5145623 C196.902589,74.5145649 234.802038,70.1949865 259.110152,62.2682504 C280.009285,55.4531638 290.09992,46.1822262 290.09992,35.7328134 C290.09992,16.6826866 224.445451,0.867560764 144.957274,0.867560764 C65.6092151,0.867560764 0.552656589,16.6485133 0.552656589,35.7328134 C0.552656589,46.2140022 10.4833857,55.465768 31.1745633,62.2686238 C55.2923406,70.1980788 93.0255154,74.5145597 144.957274,74.5145623 L144.957274,74.5145623 Z M144.957274,75.0145623 L144.957274,75.0145623 C34.3264251,75.0145568 0.0526565889,55.3859452 0.0526565889,35.7328134 C0.0526565889,16.0796816 65.7131563,0.367560764 144.957274,0.367560764 C224.201393,0.367560764 290.59992,16.0796816 290.59992,35.7328134 C290.59992,55.3859452 255.588124,75.0145678 144.957274,75.0145623 L144.957274,75.0145623 Z" id="Shape" fill="#AD222C"></path>
                </g>
                <g id="1st-Patty" transform="translate(1.673704, 96.065211)" sketch:type="MSShapeGroup">
                    <path d="M0.0526638514,32.9079928 L0.0526638514,82.5609492 C0.0526638514,82.5609492 -0.285774914,115.618589 145.157077,115.618595 C290.599928,115.6186 290.599928,82.5609492 290.599928,82.5609492 L290.599928,32.9079928 C290.599928,32.9079928 290.599932,74.2632939 145.157077,74.2632939 C-0.285778558,74.2632939 0.0526638514,32.9079928 0.0526638514,32.9079928 Z" id="Path-26-Copy-4" fill="#340405"></path>
                    <path d="M144.957274,74.9864738 C234.45535,74.9864738 290.59992,55.3972659 290.59992,35.7441341 C290.59992,16.0910022 224.201393,0.378881427 144.957274,0.378881427 C65.7131563,0.378881427 0.0526565889,16.0910022 0.0526565889,35.7441341 C0.0526565889,55.3972659 55.4591987,74.9864738 144.957274,74.9864738 Z" id="Oval-1-Copy-6" fill="#340405"></path>
                    <path d="M144.957274,74.4864738 L144.957274,74.4864738 C187.477741,74.4864738 224.496685,70.0407535 251.200426,62.2552136 C276.075329,55.0028758 290.09992,45.3186308 290.09992,35.7441341 C290.09992,16.6940073 224.445451,0.878881427 144.957274,0.878881427 C65.6092151,0.878881427 0.552656589,16.659834 0.552656589,35.7441341 C0.552656589,45.3338485 14.4240174,55.0128096 39.0840862,62.2554915 C65.6031703,70.0441677 102.450297,74.4864738 144.957274,74.4864738 L144.957274,74.4864738 Z M144.957274,74.9864738 L144.957274,74.9864738 C55.4591987,74.9864738 0.0526565889,55.3972659 0.0526565889,35.7441341 C0.0526565889,16.0910022 65.7131563,0.378881427 144.957274,0.378881427 C224.201393,0.378881427 290.59992,16.0910022 290.59992,35.7441341 C290.59992,55.3972659 234.45535,74.9864738 144.957274,74.9864738 L144.957274,74.9864738 Z" id="Shape" fill="#150101"></path>
                </g>
                <g id="Lettuce" transform="translate(1.673704, 91.737452)" sketch:type="MSShapeGroup">
                    <path d="M0.0526637729,35.512272 L0.0526637729,43.9926862 C0.0526637729,43.9926862 0.0526637729,80.8642687 145.326296,80.8642687 C290.599927,80.8642687 290.599927,43.9926862 290.599927,43.9926862 L290.599927,35.512272 C290.599927,35.512272 290.599927,74.6840466 145.326296,74.6840466 C0.0526637729,74.6840466 0.0526637729,35.512272 0.0526637729,35.512272 Z" id="Path-26-Copy" fill="#39BD67"></path>
                    <path d="M144.957274,75.0145623 C255.588124,75.0145678 290.59992,55.3859452 290.59992,35.7328134 C290.59992,16.0796816 224.201393,0.367560764 144.957274,0.367560764 C65.7131563,0.367560764 0.0526565889,16.0796816 0.0526565889,35.7328134 C0.0526565889,55.3859452 34.3264251,75.0145568 144.957274,75.0145623 Z" id="Oval-1-Copy-7" fill="url(#radialGradient-4)"></path>
                    <path d="M144.957274,74.5145623 L144.957274,74.5145623 C196.902589,74.5145649 234.802038,70.1949865 259.110152,62.2682504 C280.009285,55.4531638 290.09992,46.1822262 290.09992,35.7328134 C290.09992,16.6826866 224.445451,0.867560764 144.957274,0.867560764 C65.6092151,0.867560764 0.552656589,16.6485133 0.552656589,35.7328134 C0.552656589,46.2140022 10.4833857,55.465768 31.1745633,62.2686238 C55.2923406,70.1980788 93.0255154,74.5145597 144.957274,74.5145623 L144.957274,74.5145623 Z M144.957274,75.0145623 L144.957274,75.0145623 C34.3264251,75.0145568 0.0526565889,55.3859452 0.0526565889,35.7328134 C0.0526565889,16.0796816 65.7131563,0.367560764 144.957274,0.367560764 C224.201393,0.367560764 290.59992,16.0796816 290.59992,35.7328134 C290.59992,55.3859452 255.588124,75.0145678 144.957274,75.0145623 L144.957274,75.0145623 Z" id="Shape" fill="#33A65B"></path>
                </g>
                <g id="2nd-Patty" transform="translate(1.673704, 50.510787)" sketch:type="MSShapeGroup">
                    <path d="M0.0526638514,32.9020825 L0.0526638514,82.5550389 C0.0526638514,82.5550389 -0.285774914,115.612679 145.157077,115.612685 C290.599928,115.61269 290.599928,82.5550389 290.599928,82.5550389 L290.599928,32.9020825 C290.599928,32.9020825 290.599932,74.2573835 145.157077,74.2573835 C-0.285778558,74.2573835 0.0526638514,32.9020825 0.0526638514,32.9020825 Z" id="Path-26-Copy-3" fill="#340405"></path>
                    <path d="M144.957274,74.9805635 C234.45535,74.9805635 290.59992,55.3913555 290.59992,35.7382237 C290.59992,16.0850919 224.201393,0.372971088 144.957274,0.372971088 C65.7131563,0.372971088 0.0526565889,16.0850919 0.0526565889,35.7382237 C0.0526565889,55.3913555 55.4591987,74.9805635 144.957274,74.9805635 Z" id="Oval-1-Copy-5" fill="#340405"></path>
                    <path d="M144.957274,74.4805635 L144.957274,74.4805635 C187.477741,74.4805635 224.496685,70.0348432 251.200426,62.2493033 C276.075329,54.9969655 290.09992,45.3127205 290.09992,35.7382237 C290.09992,16.6880969 224.445451,0.872971088 144.957274,0.872971088 C65.6092151,0.872971088 0.552656589,16.6539237 0.552656589,35.7382237 C0.552656589,45.3279382 14.4240174,55.0068993 39.0840862,62.2495812 C65.6031703,70.0382574 102.450297,74.4805635 144.957274,74.4805635 L144.957274,74.4805635 Z M144.957274,74.9805635 L144.957274,74.9805635 C55.4591987,74.9805635 0.0526565889,55.3913555 0.0526565889,35.7382237 C0.0526565889,16.0850919 65.7131563,0.372971088 144.957274,0.372971088 C224.201393,0.372971088 290.59992,16.0850919 290.59992,35.7382237 C290.59992,55.3913555 234.45535,74.9805635 144.957274,74.9805635 L144.957274,74.9805635 Z" id="Shape" fill="#150101"></path>
                </g>
                <g id="Cheese" transform="translate(1.673704, 49.069837)" sketch:type="MSShapeGroup">
                    <path d="M144.957274,74.9751531 C234.45535,74.9751531 290.59992,55.3859452 290.59992,35.7328134 C290.59992,16.0796816 224.201393,0.367560764 144.957274,0.367560764 C65.7131563,0.367560764 0.0526565889,16.0796816 0.0526565889,35.7328134 C0.0526565889,55.3859452 55.4591987,74.9751531 144.957274,74.9751531 Z" id="Oval-1-Copy-7" fill="url(#radialGradient-5)"></path>
                    <path d="M243.784422,60.2742827 C261.42067,55.8836942 272.037816,52.7506498 281.588423,49.4497287 C265.897735,58.1879173 265.962469,83.878676 260.437675,83.878676 C254.912881,83.878676 241.631028,69.2414569 201.358789,72.1027752 C201.358789,72.1027752 226.148174,64.6648711 243.784422,60.2742827 Z" id="Triangle-46-Copy-2" fill="url(#linearGradient-6)"></path>
                    <path d="M33.2478111,57.8738758 C43.5034153,61.5345053 54.4643066,66.3639686 64.2369376,68.5539669 C35.7220885,66.3639686 25.4166738,83.0775948 23.486549,74.1988664 C21.5564243,65.320138 24.7108766,59.9160631 6.93471834,47.7759627 C6.93471834,47.7759627 18.9962127,52.7869183 33.2478111,57.8738758 Z" id="Triangle-46-Copy" fill="url(#linearGradient-7)"></path>
                </g>
                <g id="Top-Bun" transform="translate(0.695888, 0.456638)" sketch:type="MSShapeGroup">
                    <path d="M1.03048008,33.0568168 L1.03048008,82.7097732 C1.03048008,82.7097732 0.692041317,115.767413 146.134893,115.767419 C291.577744,115.767424 291.577744,82.7097732 291.577744,82.7097732 L291.577744,33.0568168 C291.577744,33.0568168 291.577748,74.4121179 146.134893,74.4121179 C0.692037673,74.4121179 1.03048008,33.0568168 1.03048008,33.0568168 Z" id="Path-26" fill="url(#linearGradient-8)"></path>
                    <path d="M145.935098,75.1210355 C235.433174,75.1210355 291.577744,55.5318275 291.577744,35.8786957 C291.577744,16.2255639 225.179216,0.513443089 145.935098,0.513443089 C66.6909797,0.513443089 1.03048003,16.2255639 1.03048003,35.8786957 C1.03048003,55.5318275 56.4370222,75.1210355 145.935098,75.1210355 Z" id="Oval-1-Copy-8" fill="url(#linearGradient-9)"></path>
                    <path d="M145.935098,75.3710355 C188.522012,75.3710355 225.610086,70.9170132 252.388174,63.1097974 C277.563319,55.7699232 291.827744,45.9200686 291.827744,35.8786957 C291.827744,16.1357391 225.93594,0.263443089 145.935098,0.263443089 C66.0771765,0.263443089 0.780480035,16.1026466 0.780480035,35.8786957 C0.780480035,45.932728 14.892112,55.7793421 39.850561,63.1096585 C66.4445826,70.9203438 103.361264,75.3710355 145.935098,75.3710355 L145.935098,75.3710355 Z M145.935098,74.8710355 C103.405835,74.8710355 66.5355234,70.4259342 39.9914601,62.6299216 C15.2319313,55.3580282 1.28048003,45.6231828 1.28048003,35.8786957 C1.28048003,16.5638126 66.4170846,0.763443089 145.935098,0.763443089 C225.594163,0.763443089 291.327744,16.5976257 291.327744,35.8786957 C291.327744,45.6088179 277.223208,55.3482661 252.248224,62.6297827 C225.519701,70.4225479 188.477713,74.8710355 145.935098,74.8710355 L145.935098,74.8710355 Z" id="border" fill="#C58020"></path>
                    <g id="Sesame-Seeds" transform="translate(7.070189, 6.061351)" fill="#FCF1DE">
                        <path d="M82.4461775,8.89448692 C83.9337098,8.89448692 86.1541452,7.79922145 86.1541452,6.86818008 C86.1541452,5.9371387 83.9136733,4.79961844 82.4461775,4.79961843 C80.9786816,4.79961843 79.2758168,4.39710082 79.2758168,6.86818002 C79.2758168,9.33925923 80.9586451,8.89448692 82.4461775,8.89448692 Z" id="Oval-33"></path>
                        <path d="M104.255771,16.0702262 C105.743303,16.0702262 107.963739,14.9749608 107.963739,14.0439194 C107.963739,13.112878 105.723267,11.9753577 104.255771,11.9753577 C102.788275,11.9753577 101.08541,11.5728401 101.08541,14.0439193 C101.08541,16.5149985 102.768239,16.0702262 104.255771,16.0702262 Z" id="Oval-33-Copy"></path>
                        <path d="M85.4466906,21.2416557 C83.9513823,20.8517338 81.4597868,21.2123868 81.2391511,22.0137285 C81.0185154,22.8150701 83.0011327,24.3814143 84.4762997,24.766084 C85.9514667,25.1507538 87.5678455,25.9435645 88.1534352,23.8167217 C88.739025,21.6898789 86.9419989,21.6315775 85.4466906,21.2416557 L85.4466906,21.2416557 Z" id="Oval-33-Copy-2"></path>
                        <path d="M48.0478856,28.8363246 C49.5359856,28.4060479 51.4625451,26.8520753 51.2120128,26.0770758 C50.9614806,25.3020763 48.4140605,25.0032722 46.9460047,25.4277533 C45.4779489,25.8522344 43.6661216,26.0097413 44.3310599,28.0666693 C44.9959983,30.1235973 46.5597857,29.2666014 48.0478856,28.8363246 L48.0478856,28.8363246 Z" id="Oval-33-Copy-3"></path>
                        <path d="M33.7228972,16.2592327 C32.2275889,15.8693108 29.7359934,16.2299638 29.5153577,17.0313055 C29.294722,17.8326471 31.2773392,19.3989913 32.7525062,19.783661 C34.2276732,20.1683308 35.8440521,20.9611415 36.4296418,18.8342987 C37.0152315,16.7074559 35.2182055,16.6491545 33.7228972,16.2592327 L33.7228972,16.2592327 Z" id="Oval-33-Copy-49"></path>
                        <path d="M79.1788859,51.5328793 C80.702407,51.5328793 82.9765626,50.4376139 82.9765626,49.5065725 C82.9765626,48.5755311 80.6818857,47.4380108 79.1788859,47.4380108 C77.6758861,47.4380108 75.9318229,47.0354932 75.9318229,49.5065724 C75.9318229,51.9776516 77.6553648,51.5328793 79.1788859,51.5328793 Z" id="Oval-33-Copy-5"></path>
                        <path d="M67.9685539,36.9716597 C66.6137645,37.6927557 65.3021704,39.3459891 65.9063047,39.8363508 C66.5104391,40.3267124 69.2890924,39.8397315 70.6256333,39.1283484 C71.9621741,38.4169652 73.7742661,37.8034829 72.1708315,36.5020129 C70.567397,35.2005428 69.3233432,36.2505636 67.9685539,36.9716597 L67.9685539,36.9716597 Z" id="Oval-33-Copy-51"></path>
                        <path d="M45.6740422,47.9075547 C46.7290675,48.7491297 49.5368746,49.703151 50.5849764,49.4462668 C51.6330782,49.1893826 51.3245755,47.6079764 50.283761,46.7777371 C49.2429466,45.9474979 48.4883241,44.8730391 45.7065546,45.5548361 C42.9247851,46.236633 44.6190169,47.0659797 45.6740422,47.9075547 L45.6740422,47.9075547 Z" id="Oval-33-Copy-6"></path>
                        <path d="M23.3593516,69.1632525 C24.8474515,68.7329757 26.7740111,67.1790031 26.5234788,66.4040037 C26.2729465,65.6290042 23.7255264,65.3302001 22.2574707,65.7546811 C20.7894149,66.1791622 18.9775875,66.3366691 19.6425259,68.3935971 C20.3074642,70.4505251 21.8712516,69.5935292 23.3593516,69.1632525 L23.3593516,69.1632525 Z" id="Oval-33-Copy-7"></path>
                        <path d="M36.2678625,89.3685957 C37.7913835,89.3685957 40.0655391,88.2733302 40.0655391,87.3422888 C40.0655391,86.4112474 37.7708622,85.2737272 36.2678625,85.2737272 C34.7648627,85.2737272 33.0207995,84.8712096 33.0207995,87.3422888 C33.0207995,89.813368 34.7443414,89.3685957 36.2678625,89.3685957 Z" id="Oval-33-Copy-41"></path>
                        <path d="M52.2775218,71.1470792 C51.2021103,71.9849946 50.8034881,73.5491367 51.8292059,73.8155354 C52.8549236,74.0819341 55.727866,73.1453722 56.7887921,72.3187432 C57.8497181,71.4921143 59.5242534,70.648076 56.8018934,69.9410266 C54.0795334,69.2339771 53.3529333,70.3091638 52.2775218,71.1470792 L52.2775218,71.1470792 Z" id="Oval-33-Copy-8"></path>
                        <path d="M79.7902865,90.9267669 C81.2783865,90.4964902 83.204946,88.9425176 82.9544138,88.1675181 C82.7038815,87.3925186 80.1564614,87.0937145 78.6884056,87.5181956 C77.2203499,87.9426766 75.4085225,88.1001835 76.0734608,90.1571115 C76.7383992,92.2140396 78.3021866,91.3570436 79.7902865,90.9267669 L79.7902865,90.9267669 Z" id="Oval-33-Copy-10"></path>
                        <path d="M117.811525,78.0752932 C119.335046,78.0752932 121.609201,76.9800278 121.609201,76.0489864 C121.609201,75.117945 119.314524,73.9804248 117.811525,73.9804248 C116.308525,73.9804247 114.564462,73.5779071 114.564462,76.0489863 C114.564462,78.5200656 116.288003,78.0752932 117.811525,78.0752932 Z" id="Oval-33-Copy-11"></path>
                        <path d="M76.9751831,69.4263559 C75.8997716,70.2642713 75.5011494,71.8284134 76.5268672,72.0948121 C77.5525849,72.3612108 80.4255272,71.4246489 81.4864533,70.5980199 C82.5473794,69.771391 84.2219146,68.9273527 81.4995546,68.2203033 C78.7771947,67.5132538 78.0505946,68.5884405 76.9751831,69.4263559 L76.9751831,69.4263559 Z" id="Oval-33-Copy-47"></path>
                        <path d="M63.8965316,18.6704058 C64.9515569,19.5119808 67.759364,20.4660021 68.8074658,20.2091179 C69.8555676,19.9522337 69.5470649,18.3708275 68.5062504,17.5405882 C67.465436,16.710349 66.7108136,15.6358902 63.929044,16.3176872 C61.1472745,16.9994841 62.8415063,17.8288308 63.8965316,18.6704058 L63.8965316,18.6704058 Z" id="Oval-33-Copy-48"></path>
                        <path d="M106.806531,95.0596633 C108.330052,95.0596633 110.604208,93.9643978 110.604208,93.0333565 C110.604208,92.1023151 108.309531,90.9647948 106.806531,90.9647948 C105.303531,90.9647948 103.559468,90.5622772 103.559468,93.0333564 C103.559468,95.5044356 105.28301,95.0596633 106.806531,95.0596633 Z" id="Oval-33-Copy-45"></path>
                        <path d="M193.81335,60.7277268 C195.336871,60.7277268 197.611026,59.6324614 197.611026,58.70142 C197.611026,57.7703786 195.31635,56.6328584 193.81335,56.6328583 C192.31035,56.6328583 190.566287,56.2303407 190.566287,58.7014199 C190.566287,61.1724991 192.289829,60.7277268 193.81335,60.7277268 Z" id="Oval-33-Copy-46"></path>
                        <path d="M110.328901,59.6588538 C111.852422,59.6588538 114.126578,58.5635883 114.126578,57.6325469 C114.126578,56.7015055 111.831901,55.5639853 110.328901,55.5639853 C108.825901,55.5639853 107.081838,55.1614676 107.081838,57.6325469 C107.081838,60.1036261 108.80538,59.6588538 110.328901,59.6588538 Z" id="Oval-33-Copy-43"></path>
                        <path d="M149.316326,33.5036576 C150.839847,33.5036576 153.114002,32.4083921 153.114002,31.4773508 C153.114002,30.5463094 150.819326,29.4087891 149.316326,29.4087891 C147.813326,29.4087891 146.069263,29.0062715 146.069263,31.4773507 C146.069263,33.9484299 147.792805,33.5036576 149.316326,33.5036576 Z" id="Oval-33-Copy-44"></path>
                        <path d="M132.111029,44.7903783 C133.599129,44.3601016 135.525689,42.806129 135.275157,42.0311295 C135.024624,41.25613 132.477204,40.9573259 131.009149,41.381807 C129.541093,41.806288 127.729265,41.9637949 128.394204,44.0207229 C129.059142,46.077651 130.622929,45.220655 132.111029,44.7903783 L132.111029,44.7903783 Z" id="Oval-33-Copy-12"></path>
                        <path d="M107.417932,30.9114927 C108.906032,30.481216 110.832591,28.9272434 110.582059,28.1522439 C110.331527,27.3772444 107.784107,27.0784403 106.316051,27.5029214 C104.847995,27.9274024 103.036168,28.0849093 103.701106,30.1418373 C104.366044,32.1987654 105.929832,31.3417694 107.417932,30.9114927 L107.417932,30.9114927 Z" id="Oval-33-Copy-13"></path>
                        <path d="M139.521773,7.0083253 C138.026465,6.61840343 135.534869,6.97905646 135.314233,7.7803981 C135.093598,8.58173974 137.076215,10.1480839 138.551382,10.5327537 C140.026549,10.9174234 141.642928,11.7102341 142.228518,9.58339132 C142.814107,7.45654851 141.017081,7.39824717 139.521773,7.0083253 L139.521773,7.0083253 Z" id="Oval-33-Copy-14"></path>
                        <path d="M118.558412,4.7441508 C120.081933,4.7441508 122.356089,3.64888533 122.356089,2.71784395 C122.356089,1.78680258 120.061412,0.649282311 118.558412,0.649282305 C117.055413,0.6492823 115.311349,0.246764692 115.311349,2.7178439 C115.311349,5.1889231 117.034891,4.7441508 118.558412,4.7441508 Z" id="Oval-33-Copy-15"></path>
                        <path d="M169.699971,3.19399426 C170.754996,4.03556924 173.562803,4.9895905 174.610905,4.73270633 C175.659007,4.47582215 175.350504,2.89441594 174.30969,2.06417667 C173.268875,1.23393741 172.514253,0.159478677 169.732483,0.8412756 C166.950714,1.52307252 168.644946,2.35241927 169.699971,3.19399426 L169.699971,3.19399426 Z" id="Oval-33-Copy-16"></path>
                        <path d="M159.118147,18.1453943 C160.641668,18.1453943 162.915823,17.0501288 162.915823,16.1190874 C162.915823,15.1880461 160.621147,14.0505258 159.118147,14.0505258 C157.615147,14.0505258 155.871084,13.6480082 155.871084,16.1190874 C155.871084,18.5901666 157.594626,18.1453943 159.118147,18.1453943 Z" id="Oval-33-Copy-17"></path>
                        <path d="M210.846504,7.76955398 C212.370025,7.76955398 214.644181,6.67428851 214.644181,5.74324713 C214.644181,4.81220576 212.349504,3.67468549 210.846504,3.67468549 C209.343504,3.67468548 207.599441,3.27216787 207.599441,5.74324708 C207.599441,8.21432629 209.322983,7.76955398 210.846504,7.76955398 Z" id="Oval-33-Copy-18"></path>
                        <path d="M241.802843,10.0337285 C240.307534,9.64380661 237.815939,10.0044596 237.595303,10.8058013 C237.374667,11.6071429 239.357285,13.1734871 240.832452,13.5581568 C242.307619,13.9428266 243.923998,14.7356373 244.509587,12.6087945 C245.095177,10.4819517 243.298151,10.4236504 241.802843,10.0337285 L241.802843,10.0337285 Z" id="Oval-33-Copy-19"></path>
                        <path d="M260.371158,22.5194791 C259.295747,23.3573945 258.897124,24.9215366 259.922842,25.1879353 C260.94856,25.454334 263.821502,24.5177721 264.882428,23.6911431 C265.943354,22.8645142 267.61789,22.020476 264.89553,21.3134265 C262.17317,20.606377 261.44657,21.6815638 260.371158,22.5194791 L260.371158,22.5194791 Z" id="Oval-33-Copy-20"></path>
                        <path d="M237.303068,25.2029853 C238.826589,25.2029853 241.100745,24.1077199 241.100745,23.1766785 C241.100745,22.2456371 238.806068,21.1081169 237.303068,21.1081169 C235.800068,21.1081168 234.056005,20.7055992 234.056005,23.1766784 C234.056005,25.6477577 235.779547,25.2029853 237.303068,25.2029853 Z" id="Oval-33-Copy-21"></path>
                        <path d="M201.46949,21.7787336 C202.95759,21.3484568 204.88415,19.7944842 204.633617,19.0194848 C204.383085,18.2444853 201.835665,17.9456812 200.367609,18.3701622 C198.899553,18.7946433 197.087726,18.9521502 197.752664,21.0090782 C198.417603,23.0660062 199.98139,22.2090103 201.46949,21.7787336 L201.46949,21.7787336 Z" id="Oval-33-Copy-22"></path>
                        <path d="M174.984784,31.4284895 C176.508305,31.4284895 178.78246,30.3332241 178.78246,29.4021827 C178.78246,28.4711413 176.487783,27.333621 174.984784,27.333621 C173.481784,27.333621 171.737721,26.9311034 171.737721,29.4021826 C171.737721,31.8732618 173.461263,31.4284895 174.984784,31.4284895 Z" id="Oval-33-Copy-23"></path>
                        <path d="M207.902829,41.157039 C209.42635,41.157039 211.700506,40.0617735 211.700506,39.1307322 C211.700506,38.1996908 209.405829,37.0621705 207.902829,37.0621705 C206.399829,37.0621705 204.655766,36.6596529 204.655766,39.1307321 C204.655766,41.6018113 206.379308,41.157039 207.902829,41.157039 Z" id="Oval-33-Copy-24"></path>
                        <path d="M244.959208,44.7903783 C246.447308,44.3601016 248.373868,42.806129 248.123336,42.0311295 C247.872803,41.25613 245.325383,40.9573259 243.857328,41.381807 C242.389272,41.806288 240.577444,41.9637949 241.242383,44.0207229 C241.907321,46.077651 243.471109,45.220655 244.959208,44.7903783 L244.959208,44.7903783 Z" id="Oval-33-Copy-25"></path>
                        <path d="M274.128502,55.6975241 C272.633194,55.3076022 270.141598,55.6682552 269.920963,56.4695969 C269.700327,57.2709385 271.682944,58.8372827 273.158111,59.2219524 C274.633278,59.6066222 276.249657,60.3994329 276.835247,58.2725901 C277.420836,56.1457473 275.62381,56.0874459 274.128502,55.6975241 L274.128502,55.6975241 Z" id="Oval-33-Copy-26"></path>
                        <path d="M261.629551,73.8305854 C263.153072,73.8305854 265.427227,72.73532 265.427227,71.8042786 C265.427227,70.8732372 263.132551,69.7357169 261.629551,69.7357169 C260.126551,69.7357169 258.382488,69.3331993 258.382488,71.8042785 C258.382488,74.2753577 260.10603,73.8305854 261.629551,73.8305854 Z" id="Oval-33-Copy-28"></path>
                        <path d="M242.585365,66.0549247 C243.64039,66.8964997 246.448197,67.850521 247.496299,67.5936368 C248.544401,67.3367526 248.235898,65.7553464 247.195084,64.9251071 C246.154269,64.0948679 245.399647,63.0204091 242.617877,63.7022061 C239.836108,64.384003 241.53034,65.2133497 242.585365,66.0549247 L242.585365,66.0549247 Z" id="Oval-33-Copy-29"></path>
                        <path d="M233.561756,88.0166075 C235.085278,88.0166075 237.359433,86.9213421 237.359433,85.9903007 C237.359433,85.0592593 235.064756,83.921739 233.561756,83.921739 C232.058757,83.921739 230.314693,83.5192214 230.314693,85.9903006 C230.314693,88.4613798 232.038235,88.0166075 233.561756,88.0166075 Z" id="Oval-33-Copy-30"></path>
                        <path d="M212.743866,68.6318463 C211.668454,69.4697617 211.269832,71.0339038 212.29555,71.3003025 C213.321268,71.5667012 216.19421,70.6301393 217.255136,69.8035103 C218.316062,68.9768813 219.990597,68.1328431 217.268237,67.4257937 C214.545877,66.7187442 213.819277,67.7939309 212.743866,68.6318463 L212.743866,68.6318463 Z" id="Oval-33-Copy-31"></path>
                        <path d="M174.984784,53.6080474 C176.508305,53.6080474 178.78246,52.5127819 178.78246,51.5817405 C178.78246,50.6506992 176.487783,49.5131789 174.984784,49.5131789 C173.481784,49.5131789 171.737721,49.1106613 171.737721,51.5817405 C171.737721,54.0528197 173.461263,53.6080474 174.984784,53.6080474 Z" id="Oval-33-Copy-32"></path>
                        <path d="M137.187009,66.0643497 C138.71053,66.0643497 140.984686,64.9690843 140.984686,64.0380429 C140.984686,63.1070015 138.690009,61.9694812 137.187009,61.9694812 C135.684009,61.9694812 133.939946,61.5669636 133.939946,64.0380428 C133.939946,66.509122 135.663488,66.0643497 137.187009,66.0643497 Z" id="Oval-33-Copy-33"></path>
                        <path d="M160.105847,58.71805 C160.105847,57.8204832 158.246754,56.4806878 156.666414,56.4806878 C155.086073,56.4806878 153.155258,57.8325731 153.155258,58.71805 C153.155258,59.6035269 152.472028,60.6310239 156.666414,60.6310239 C160.860799,60.6310239 160.105847,59.6156169 160.105847,58.71805 L160.105847,58.71805 Z" id="Oval-33-Copy-52"></path>
                        <path d="M143.318484,78.9611808 C142.812532,78.0729488 140.371132,76.8589337 138.93779,76.9540098 C137.504448,77.0490859 136.51528,78.5030727 137.014417,79.3793405 C137.513554,80.2556083 137.47307,81.3135234 141.277306,81.0611818 C145.081543,80.8088401 143.824436,79.8494127 143.318484,78.9611808 L143.318484,78.9611808 Z" id="Oval-33-Copy-50"></path>
                        <path d="M178.507153,83.1430915 C180.030675,83.1430915 182.30483,82.047826 182.30483,81.1167846 C182.30483,80.1857433 180.010153,79.048223 178.507153,79.048223 C177.004154,79.048223 175.26009,78.6457054 175.26009,81.1167846 C175.26009,83.5878638 176.983632,83.1430915 178.507153,83.1430915 Z" id="Oval-33-Copy-34"></path>
                        <path d="M130.297929,98.1144001 C128.802621,97.7244782 126.311025,98.0851313 126.090389,98.8864729 C125.869754,99.6878145 127.852371,101.254159 129.327538,101.638828 C130.802705,102.023498 132.419084,102.816309 133.004674,100.689466 C133.590263,98.5626233 131.793237,98.504322 130.297929,98.1144001 L130.297929,98.1144001 Z" id="Oval-33-Copy-35"></path>
                        <path d="M145.589108,93.5189318 C147.112629,93.5189318 149.386785,92.4236663 149.386785,91.492625 C149.386785,90.5615836 147.092108,89.4240633 145.589108,89.4240633 C144.086108,89.4240633 142.342045,89.0215457 142.342045,91.4926249 C142.342045,93.9637041 144.065587,93.5189318 145.589108,93.5189318 Z" id="Oval-33-Copy-36"></path>
                        <path d="M4.30342488,50.6530127 C2.8111997,50.2630908 0.324741489,50.6237438 0.104560722,51.4250855 C-0.115620045,52.2264271 1.86290932,53.7927713 3.33503474,54.177441 C4.80716016,54.5621108 6.4202063,55.3549215 7.00458861,53.2280787 C7.58897092,51.1012359 5.79565005,51.0429346 4.30342488,50.6530127 L4.30342488,50.6530127 Z" id="Oval-33-Copy-39"></path>
                        <path d="M26.8015534,47.3825432 C28.3219332,47.3825432 30.5913998,46.2872777 30.5913998,45.3562364 C30.5913998,44.425195 28.3014542,43.2876747 26.8015534,43.2876747 C25.3016526,43.2876747 23.5611854,42.8851571 23.5611854,45.3562363 C23.5611854,47.8273155 25.2811736,47.3825432 26.8015534,47.3825432 Z" id="Oval-33-Copy-42"></path>
                        <path d="M5.66043681,76.7226317 C6.71111147,77.5642066 9.50734002,78.5182279 10.5511197,78.2613437 C11.5948995,78.0044596 11.2876689,76.4230533 10.2511465,75.5928141 C9.21462407,74.7625748 8.46311348,73.6881161 5.69281517,74.369913 C2.92251686,75.0517099 4.60976215,75.8810567 5.66043681,76.7226317 L5.66043681,76.7226317 Z" id="Oval-33-Copy-40"></path>
                        <path d="M204.493028,89.9204719 C205.974991,89.4901952 207.893606,87.9362226 207.644107,87.1612231 C207.394608,86.3862236 204.857693,86.0874195 203.395691,86.5119006 C201.933689,86.9363816 200.129333,87.0938885 200.791529,89.1508166 C201.453726,91.2077446 203.011065,90.3507487 204.493028,89.9204719 L204.493028,89.9204719 Z" id="Oval-33-Copy-37"></path>
                        <path d="M178.941838,101.819604 C180.459076,101.819604 182.723854,100.724339 182.723854,99.7932972 C182.723854,98.8622558 180.43864,97.7247356 178.941838,97.7247356 C177.445036,97.7247355 175.708165,97.3222179 175.708165,99.7932971 C175.708165,102.264376 177.424599,101.819604 178.941838,101.819604 Z" id="Oval-33-Copy-38"></path>
                        <path d="M270.781974,34.1176305 C271.828298,34.9592055 274.612948,35.9132267 275.652406,35.6563426 C276.691863,35.3994584 276.385905,33.8180522 275.353675,32.9878129 C274.321444,32.1575736 273.573045,31.0831149 270.814218,31.7649118 C268.055391,32.4467087 269.73565,33.2760555 270.781974,34.1176305 L270.781974,34.1176305 Z" id="Oval-33-Copy-27"></path>
                        <path d="M16.7396487,31.4284895 C18.2506047,31.4284895 20.5060043,30.3332241 20.5060043,29.4021827 C20.5060043,28.4711413 18.2302526,27.333621 16.7396487,27.333621 C15.2490448,27.333621 13.5193657,26.9311034 13.5193657,29.4021826 C13.5193657,31.8732618 15.2286928,31.4284895 16.7396487,31.4284895 Z" id="Oval-33-Copy-9"></path>
                        <path d="M48.2112047,11.9198901 C49.7221606,11.9198901 51.9775603,10.8246246 51.9775603,9.89358326 C51.9775603,8.96254188 49.7018086,7.82502162 48.2112047,7.82502161 C46.7206008,7.82502161 44.9909216,7.422504 44.9909216,9.8935832 C44.9909216,12.3646624 46.7002488,11.9198901 48.2112047,11.9198901 Z" id="Oval-33-Copy-4"></path>
                    </g>
                </g>
            </g>
        </g>
    </g>
</svg>